<?xml version="1.0" encoding="UTF-8"?>
<!DOCTYPE svg PUBLIC "-//W3C//DTD SVG 1.1//EN" "http://www.w3.org/Graphics/SVG/1.1/DTD/svg11.dtd">
<svg xmlns="http://www.w3.org/2000/svg" version="1.1" width="500px" height="147px" style="shape-rendering:geometricPrecision; text-rendering:geometricPrecision; image-rendering:optimizeQuality; fill-rule:evenodd; clip-rule:evenodd" xmlns:xlink="http://www.w3.org/1999/xlink">
<g><path style="opacity:1" fill="#694acc" d="M 93.5,14.5 C 98.7618,24.3578 106.262,32.0245 116,37.5C 116.464,36.9056 116.631,36.2389 116.5,35.5C 119.076,35.7218 119.91,37.0551 119,39.5C 108.996,45.8393 100.662,53.8393 94,63.5C 86.9586,54.2958 78.4586,46.6291 68.5,40.5C 67.218,39.0416 67.218,37.7082 68.5,36.5C 68.369,37.2389 68.5357,37.9056 69,38.5C 79.1457,32.5633 87.3123,24.5633 93.5,14.5 Z"/></g>
<g><path style="opacity:0.967" fill="#ab3aca" d="M 474.5,17.5 C 478.279,16.6799 480.612,18.0133 481.5,21.5C 479.989,23.4411 477.989,23.9411 475.5,23C 473.365,21.4443 473.032,19.6109 474.5,17.5 Z"/></g>
<g><path style="opacity:0.345" fill="#cd88df" d="M 481.5,21.5 C 480.612,18.0133 478.279,16.6799 474.5,17.5C 476.065,15.2812 478.065,14.9479 480.5,16.5C 481.452,18.0453 481.785,19.712 481.5,21.5 Z"/></g>
<g><path style="opacity:1" fill="#7c61d2" d="M 92.5,13.5 C 93.1894,12.2264 94.0228,12.2264 95,13.5C 99.6606,23.3268 106.827,30.6602 116.5,35.5C 116.631,36.2389 116.464,36.9056 116,37.5C 106.262,32.0245 98.7618,24.3578 93.5,14.5C 93.5,13.8333 93.1667,13.5 92.5,13.5 Z"/></g>
<g><path style="opacity:0.408" fill="#cf91e2" d="M 468.5,29.5 C 468.565,29.9382 468.399,30.2716 468,30.5C 467.167,28.3333 465.667,26.8333 463.5,26C 460.293,25.9127 457.293,25.746 454.5,25.5C 458.078,24.4113 461.745,24.2446 465.5,25C 467.439,25.9078 468.439,27.4078 468.5,29.5 Z"/></g>
<g><path style="opacity:1" fill="#ad3dcd" d="M 454.5,25.5 C 457.293,25.746 460.293,25.9127 463.5,26C 465.667,26.8333 467.167,28.3333 468,30.5C 468.399,30.2716 468.565,29.9382 468.5,29.5C 469.166,34.0166 469.833,38.6833 470.5,43.5C 471.451,44.3256 472.451,44.4922 473.5,44C 475.08,38.3031 474.747,32.8031 472.5,27.5C 475.199,27.5339 477.699,26.8672 480,25.5C 480.203,32.5793 480.703,39.5793 481.5,46.5C 478.223,46.7839 475.057,46.4505 472,45.5C 468.87,48.1217 465.703,48.1217 462.5,45.5C 454.169,49.7963 450.502,47.463 451.5,38.5C 453.494,37.6503 455.494,37.1503 457.5,37C 455.269,39.4698 455.269,41.8031 457.5,44C 459.514,44.7787 460.514,44.612 460.5,43.5C 462.168,41.5214 462.834,39.188 462.5,36.5C 462.5,35.1667 461.833,34.5 460.5,34.5C 463.191,31.745 463.024,29.0784 460,26.5C 458.836,28.6488 457.67,30.8154 456.5,33C 451.917,33.9337 450.417,32.1004 452,27.5C 452.708,26.6195 453.542,25.9528 454.5,25.5 Z M 462.5,36.5 C 462.834,39.188 462.168,41.5214 460.5,43.5C 457.756,42.9283 456.923,41.2617 458,38.5C 459.11,36.9632 460.61,36.2965 462.5,36.5 Z"/></g>
<g><path style="opacity:0.353" fill="#9379db" d="M 92.5,13.5 C 93.1667,13.5 93.5,13.8333 93.5,14.5C 87.3123,24.5633 79.1457,32.5633 69,38.5C 68.5357,37.9056 68.369,37.2389 68.5,36.5C 78.4786,30.8538 86.4786,23.1872 92.5,13.5 Z"/></g>
<g><path style="opacity:1" fill="#694bcd" d="M 55.5,33.5 C 60.7767,42.9606 67.4434,51.4606 75.5,59C 81.6208,62.7149 87.6208,66.3816 93.5,70C 87.1747,75.3077 80.508,80.3077 73.5,85C 66.6395,91.931 60.6395,99.431 55.5,107.5C 49.9189,98.9019 43.2522,91.0686 35.5,84C 31.9482,80.7272 27.9482,78.2272 23.5,76.5C 21.1838,75.1944 18.8505,73.8611 16.5,72.5C 16.4142,71.5041 16.7476,70.6708 17.5,70C 27.5245,64.391 36.3578,57.2243 44,48.5C 47.6969,43.3149 51.5302,38.3149 55.5,33.5 Z"/></g>
<g><path style="opacity:0.334" fill="#c26fd9" d="M 481.5,46.5 C 480.703,39.5793 480.203,32.5793 480,25.5C 477.699,26.8672 475.199,27.5339 472.5,27.5C 475.084,25.5275 478.084,24.5275 481.5,24.5C 481.334,31.175 481.5,37.8417 482,44.5C 484.168,45.8224 484.001,46.4891 481.5,46.5 Z"/></g>
<g><path style="opacity:0.31" fill="#8c74d9" d="M 55.5,33.5 C 51.5302,38.3149 47.6969,43.3149 44,48.5C 36.3578,57.2243 27.5245,64.391 17.5,70C 16.7476,70.6708 16.4142,71.5041 16.5,72.5C 15.4265,71.7494 15.2599,70.7494 16,69.5C 31.3089,60.6912 43.4755,48.6912 52.5,33.5C 53.6136,32.2241 54.6136,32.2241 55.5,33.5 Z"/></g>
<g><path style="opacity:0.192" fill="#ba5dd4" d="M 460.5,34.5 C 461.833,34.5 462.5,35.1667 462.5,36.5C 460.61,36.2965 459.11,36.9632 458,38.5C 456.923,41.2617 457.756,42.9283 460.5,43.5C 460.514,44.612 459.514,44.7787 457.5,44C 455.269,41.8031 455.269,39.4698 457.5,37C 455.494,37.1503 453.494,37.6503 451.5,38.5C 453.835,35.8352 456.835,34.5018 460.5,34.5 Z"/></g>
<g><path style="opacity:0.141" fill="#996fe3" d="M 195.5,43.5 C 191.167,39.5 186.833,39.5 182.5,43.5C 184.697,38.3381 188.364,37.1714 193.5,40C 194.823,40.8159 195.489,41.9826 195.5,43.5 Z"/></g>
<g><path style="opacity:0.986" fill="#6934d8" d="M 195.5,43.5 C 197.177,49.342 194.844,52.6754 188.5,53.5C 182.508,52.2348 180.508,48.9015 182.5,43.5C 186.833,39.5 191.167,39.5 195.5,43.5 Z"/></g>
<g><path style="opacity:1" fill="#9970e4" d="M 311.5,43.5 C 310.596,42.791 310.263,41.791 310.5,40.5C 305.107,41.1817 299.773,42.1817 294.5,43.5C 294.611,42.8826 294.944,42.3826 295.5,42C 300.021,40.9113 304.521,39.7446 309,38.5C 311.157,39.385 311.99,41.0516 311.5,43.5 Z"/></g>
<g><path style="opacity:0.971" fill="#6a35d8" d="M 311.5,43.5 C 311.333,60.8365 311.5,78.1699 312,95.5C 313.353,96.6853 314.52,98.0186 315.5,99.5C 308.532,100.497 301.532,100.83 294.5,100.5C 295.139,98.2396 296.306,96.2396 298,94.5C 298.667,78.8333 298.667,63.1667 298,47.5C 296.898,46.051 295.731,44.7177 294.5,43.5C 299.773,42.1817 305.107,41.1817 310.5,40.5C 310.263,41.791 310.596,42.791 311.5,43.5 Z"/></g>
<g><path style="opacity:0.063" fill="#b79eec" d="M 156.5,42.5 C 156.5,42.8333 156.5,43.1667 156.5,43.5C 147.833,43.5 139.167,43.5 130.5,43.5C 134.107,42.176 138.107,41.5093 142.5,41.5C 147.215,41.5567 151.882,41.8901 156.5,42.5 Z"/></g>
<g><path style="opacity:0.984" fill="#6934d9" d="M 130.5,43.5 C 139.167,43.5 147.833,43.5 156.5,43.5C 162.743,43.9088 168.076,46.2421 172.5,50.5C 173.79,51.0577 174.623,52.0577 175,53.5C 177.851,64.6152 174.018,72.4485 163.5,77C 158.58,78.2503 153.58,78.7503 148.5,78.5C 148.334,84.1764 148.501,89.8431 149,95.5C 150.918,96.5418 152.751,97.7085 154.5,99C 150.511,100.138 146.344,100.638 142,100.5C 137.656,100.638 133.489,100.138 129.5,99C 130.579,98.044 131.745,97.2106 133,96.5C 133.972,92.9031 134.472,89.2364 134.5,85.5C 133.318,74.6439 133.318,63.8106 134.5,53C 133.993,50.4589 133.326,47.9589 132.5,45.5C 131.5,45 130.5,44.5 129.5,44C 129.728,43.6012 130.062,43.4346 130.5,43.5 Z M 161.5,55.5 C 162.353,60.141 162.186,64.8077 161,69.5C 159.67,73.0067 157.17,74.6734 153.5,74.5C 151.833,74.5 150.167,74.5 148.5,74.5C 148.5,64.8333 148.5,55.1667 148.5,45.5C 156.379,44.3909 160.712,47.7242 161.5,55.5 Z"/></g>
<g><path style="opacity:0.533" fill="#9e6ae5" d="M 156.5,43.5 C 156.5,43.1667 156.5,42.8333 156.5,42.5C 161.095,42.7187 165.429,43.8853 169.5,46C 171.141,47.129 172.141,48.629 172.5,50.5C 168.076,46.2421 162.743,43.9088 156.5,43.5 Z"/></g>
<g><path style="opacity:0.227" fill="#926ae1" d="M 282.5,59.5 C 275.479,56.567 268.646,56.9003 262,60.5C 261.601,60.2716 261.435,59.9382 261.5,59.5C 268.609,54.5455 275.609,54.5455 282.5,59.5 Z"/></g>
<g><path style="opacity:0.388" fill="#9d79e3" d="M 454.5,69.5 C 454.631,70.2389 454.464,70.9056 454,71.5C 452.282,62.13 446.615,57.4634 437,57.5C 434.152,57.7978 431.319,58.1312 428.5,58.5C 436.469,54.5832 443.969,55.5832 451,61.5C 452.993,63.8175 454.159,66.4842 454.5,69.5 Z"/></g>
<g><path style="opacity:0.429" fill="#8154dc" d="M 153.5,74.5 C 157.17,74.6734 159.67,73.0067 161,69.5C 162.186,64.8077 162.353,60.141 161.5,55.5C 162.117,55.3893 162.617,55.056 163,54.5C 163.839,59.9212 163.506,65.2545 162,70.5C 158.629,75.8501 153.796,77.6835 147.5,76C 149.708,75.8091 151.708,75.3091 153.5,74.5 Z"/></g>
<g><path style="opacity:0.737" fill="#8d66e2" d="M 191.5,57.5 C 192.239,57.369 192.906,57.5357 193.5,58C 189.129,59.4013 184.796,60.9013 180.5,62.5C 179.893,62.3764 179.56,62.0431 179.5,61.5C 183.195,59.5683 187.195,58.235 191.5,57.5 Z"/></g>
<g><path style="opacity:0.994" fill="#6d39d8" d="M 191.5,57.5 C 192.568,56.5655 193.901,56.2322 195.5,56.5C 195.333,69.5043 195.5,82.5043 196,95.5C 199.147,98.9483 202.647,99.115 206.5,96C 211.167,91.5064 214.834,86.3398 217.5,80.5C 213.133,72.4201 207.8,65.0868 201.5,58.5C 209.167,57.1667 216.833,57.1667 224.5,58.5C 223.509,59.6652 222.509,60.8319 221.5,62C 223.474,65.4543 225.807,68.621 228.5,71.5C 231.395,68.7682 233.728,65.6016 235.5,62C 234.491,60.8319 233.491,59.6652 232.5,58.5C 236.795,57.3391 241.129,57.1725 245.5,58C 245.833,58.3333 246.167,58.6667 246.5,59C 243.751,60.1227 241.251,61.6227 239,63.5C 236.361,67.6388 233.528,71.6388 230.5,75.5C 234.865,82.0337 239.031,88.7004 243,95.5C 244.816,96.3295 246.649,97.1628 248.5,98C 249.833,98.6667 249.833,99.3333 248.5,100C 240.5,100.667 232.5,100.667 224.5,100C 224.167,99.6667 223.833,99.3333 223.5,99C 226.974,97.2661 227.474,94.7661 225,91.5C 223.39,89.269 221.557,87.269 219.5,85.5C 216.554,88.5496 214.22,92.0496 212.5,96C 213.272,97.221 214.272,98.221 215.5,99C 215.167,99.3333 214.833,99.6667 214.5,100C 202.586,100.182 190.586,100.182 178.5,100C 178.167,99.6667 177.833,99.3333 177.5,99C 179.286,98.2155 180.786,97.0488 182,95.5C 182.667,85.5 182.667,75.5 182,65.5C 180.926,64.3816 179.76,63.3816 178.5,62.5C 178.624,61.8933 178.957,61.56 179.5,61.5C 179.56,62.0431 179.893,62.3764 180.5,62.5C 184.796,60.9013 189.129,59.4013 193.5,58C 192.906,57.5357 192.239,57.369 191.5,57.5 Z"/></g>
<g><path style="opacity:0.989" fill="#6b37d8" d="M 282.5,59.5 C 285.428,60.5914 287.594,62.5914 289,65.5C 290.29,69.7305 290.79,74.0638 290.5,78.5C 286.833,78.5 283.167,78.5 279.5,78.5C 274.36,77.5119 269.026,77.1786 263.5,77.5C 263.216,79.4147 263.549,81.0813 264.5,82.5C 266.817,93.1576 273.151,96.8242 283.5,93.5C 286.97,93.7105 286.97,94.8771 283.5,97C 275.068,101.738 266.735,101.571 258.5,96.5C 256.012,95.2601 254.179,93.2601 253,90.5C 248.534,78.8263 250.7,68.6596 259.5,60C 260.094,59.5357 260.761,59.369 261.5,59.5C 261.435,59.9382 261.601,60.2716 262,60.5C 268.646,56.9003 275.479,56.567 282.5,59.5 Z M 266.5,75.5 C 264.744,74.4479 264.077,72.7812 264.5,70.5C 264.753,66.3136 266.419,62.8136 269.5,60C 272.257,59.218 274.757,59.718 277,61.5C 278.363,65.7612 278.696,70.0946 278,74.5C 274.27,75.4601 270.437,75.7935 266.5,75.5 Z"/></g>
<g><path style="opacity:0.275" fill="#875ee0" d="M 335.5,59.5 C 334.423,58.9816 333.256,58.6483 332,58.5C 327.559,59.622 323.059,60.2886 318.5,60.5C 323.029,58.4898 327.863,57.1565 333,56.5C 334.749,56.7483 335.582,57.7483 335.5,59.5 Z"/></g>
<g><path style="opacity:1" fill="#6934d7" d="M 335.5,59.5 C 335.384,62.8599 335.051,66.1933 334.5,69.5C 333.344,76.9887 333.178,84.6554 334,92.5C 334.834,95.2589 336.334,96.2589 338.5,95.5C 341.545,95.6582 344.379,94.9915 347,93.5C 347.667,83.5 347.667,73.5 347,63.5C 345.583,62.9221 344.75,61.9221 344.5,60.5C 349.537,60.0925 354.537,59.4258 359.5,58.5C 359.333,71.1711 359.5,83.8377 360,96.5C 360.816,97.8228 361.983,98.4894 363.5,98.5C 358.833,99.1667 354.167,99.8333 349.5,100.5C 348.685,99.5707 347.852,98.5707 347,97.5C 341.679,100.953 335.845,102.12 329.5,101C 324.802,99.6295 322.302,96.4628 322,91.5C 321.631,82.8167 321.631,74.15 322,65.5C 320.86,63.7208 319.693,62.0541 318.5,60.5C 323.059,60.2886 327.559,59.622 332,58.5C 333.256,58.6483 334.423,58.9816 335.5,59.5 Z"/></g>
<g><path style="opacity:0.997" fill="#6935d8" d="M 386.5,60.5 C 385.703,59.5218 385.036,59.8551 384.5,61.5C 387.168,66.1501 390.168,70.4834 393.5,74.5C 394.383,77.7043 396.05,80.3709 398.5,82.5C 399.34,84.8525 400.674,86.8525 402.5,88.5C 403.629,94.1266 406.962,97.46 412.5,98.5C 413.043,98.56 413.376,98.8933 413.5,99.5C 405.521,100.665 397.521,100.832 389.5,100C 389.167,99.6667 388.833,99.3333 388.5,99C 390.612,98.0943 391.445,96.5943 391,94.5C 389.357,91.0386 387.19,88.0386 384.5,85.5C 385.976,83.3374 385.643,82.6707 383.5,83.5C 381,87.1667 378.5,90.8333 376,94.5C 375.333,95.5 375.333,96.5 376,97.5C 377.417,98.0779 378.25,99.0779 378.5,100.5C 373.77,100.717 369.103,100.383 364.5,99.5C 364.5,99.1667 364.5,98.8333 364.5,98.5C 366.924,97.9695 369.257,97.1362 371.5,96C 375.781,91.2726 379.448,86.1059 382.5,80.5C 378.864,74.366 375.031,68.366 371,62.5C 369.365,61.2744 367.865,59.941 366.5,58.5C 374.167,57.1667 381.833,57.1667 389.5,58.5C 388.995,59.9185 387.995,60.5852 386.5,60.5 Z"/></g>
<g><path style="opacity:1" fill="#6c39d9" d="M 402.5,65.5 C 402.565,65.0618 402.399,64.7284 402,64.5C 399.302,68.0247 396.469,71.3581 393.5,74.5C 393.5,73.8333 393.5,73.1667 393.5,72.5C 395.953,69.0979 398.286,65.5979 400.5,62C 399.491,60.8319 398.491,59.6652 397.5,58.5C 399.667,58.1667 401.833,57.8333 404,57.5C 412.904,57.3551 413.404,58.8551 405.5,62C 404.364,63.1451 403.364,64.3117 402.5,65.5 Z"/></g>
<g><path style="opacity:1" fill="#6a35d8" d="M 454.5,69.5 C 455.477,72.2869 455.81,75.2869 455.5,78.5C 451.833,78.5 448.167,78.5 444.5,78.5C 439.36,77.5119 434.026,77.1786 428.5,77.5C 428.336,80.1873 428.503,82.854 429,85.5C 429.424,88.0254 430.59,90.0254 432.5,91.5C 440.058,96.0441 447.058,95.3774 453.5,89.5C 454.107,89.6236 454.44,89.9569 454.5,90.5C 452.734,92.7706 450.734,94.9373 448.5,97C 445.459,98.2102 442.792,99.7102 440.5,101.5C 427.73,103.041 419.563,97.7075 416,85.5C 414.125,76.3268 416.292,68.3268 422.5,61.5C 424.243,59.9617 426.243,58.9617 428.5,58.5C 431.319,58.1312 434.152,57.7978 437,57.5C 446.615,57.4634 452.282,62.13 454,71.5C 454.464,70.9056 454.631,70.2389 454.5,69.5 Z M 435.5,59.5 C 438.325,59.0807 440.491,60.0807 442,62.5C 443.184,66.4489 443.518,70.4489 443,74.5C 438.599,75.4667 434.099,75.8 429.5,75.5C 429.536,71.0212 430.369,66.6879 432,62.5C 433.039,61.2899 434.206,60.2899 435.5,59.5 Z"/></g>
<g><path style="opacity:0.161" fill="#8255dd" d="M 435.5,59.5 C 434.206,60.2899 433.039,61.2899 432,62.5C 430.369,66.6879 429.536,71.0212 429.5,75.5C 428.721,75.0267 428.388,73.6933 428.5,71.5C 428.313,66.5559 429.979,62.3892 433.5,59C 434.437,58.3083 435.103,58.475 435.5,59.5 Z"/></g>
<g><path style="opacity:1" fill="#8053dd" d="M 334.5,69.5 C 334.334,76.5079 334.5,83.5079 335,90.5C 335.223,92.8808 336.39,94.5475 338.5,95.5C 336.334,96.2589 334.834,95.2589 334,92.5C 333.178,84.6554 333.344,76.9887 334.5,69.5 Z"/></g>
<g><path style="opacity:0.122" fill="#9060e3" d="M 386.5,60.5 C 388,64.9965 390.333,68.9965 393.5,72.5C 393.5,73.1667 393.5,73.8333 393.5,74.5C 390.168,70.4834 387.168,66.1501 384.5,61.5C 385.036,59.8551 385.703,59.5218 386.5,60.5 Z"/></g>
<g><path style="opacity:0.384" fill="#7f53dd" d="M 402.5,65.5 C 399.981,68.8566 397.648,72.3566 395.5,76C 396.906,77.978 397.906,80.1447 398.5,82.5C 396.05,80.3709 394.383,77.7043 393.5,74.5C 396.469,71.3581 399.302,68.0247 402,64.5C 402.399,64.7284 402.565,65.0618 402.5,65.5 Z"/></g>
<g><path style="opacity:1" fill="#946ee3" d="M 264.5,70.5 C 264.077,72.7812 264.744,74.4479 266.5,75.5C 265.791,76.404 264.791,76.7373 263.5,76.5C 263.205,74.2646 263.539,72.2646 264.5,70.5 Z"/></g>
<g><path style="opacity:0.769" fill="#865bde" d="M 279.5,78.5 C 274.821,78.3342 270.155,78.5008 265.5,79C 264.663,80.0113 264.33,81.1779 264.5,82.5C 263.549,81.0813 263.216,79.4147 263.5,77.5C 269.026,77.1786 274.36,77.5119 279.5,78.5 Z"/></g>
<g><path style="opacity:0.788" fill="#8960df" d="M 444.5,78.5 C 439.5,78.5 434.5,78.5 429.5,78.5C 429.717,83.0328 430.717,87.3661 432.5,91.5C 430.59,90.0254 429.424,88.0254 429,85.5C 428.503,82.854 428.336,80.1873 428.5,77.5C 434.026,77.1786 439.36,77.5119 444.5,78.5 Z"/></g>
<g><path style="opacity:1" fill="#6a4ccd" d="M 95.5,130.5 C 91.6689,127.827 88.6689,124.327 86.5,120C 83.5372,118.039 80.8706,115.706 78.5,113C 77.5632,112.308 76.8966,112.475 76.5,113.5C 73.7261,112.277 71.0594,110.777 68.5,109C 67.4829,107.951 67.3162,106.784 68,105.5C 77.6433,99.6901 85.4766,92.0235 91.5,82.5C 92.365,81.4173 93.365,81.2506 94.5,82C 96.9718,85.9713 99.6385,89.8046 102.5,93.5C 107.899,98.5083 113.565,103.008 119.5,107C 109.691,112.976 101.691,120.809 95.5,130.5 Z"/></g>
<g><path style="opacity:0.984" fill="#8f6be5" d="M 398.5,82.5 C 400.822,83.8021 402.155,85.8021 402.5,88.5C 400.674,86.8525 399.34,84.8525 398.5,82.5 Z"/></g>
<g><path style="opacity:0.09" fill="#7f57df" d="M 384.5,85.5 C 381.732,88.8416 379.066,92.3416 376.5,96C 377.833,97 379.167,98 380.5,99C 379.956,99.7172 379.289,100.217 378.5,100.5C 378.25,99.0779 377.417,98.0779 376,97.5C 375.333,96.5 375.333,95.5 376,94.5C 378.5,90.8333 381,87.1667 383.5,83.5C 385.643,82.6707 385.976,83.3374 384.5,85.5 Z"/></g>
<g><path style="opacity:0.067" fill="#8a5fe0" d="M 363.5,98.5 C 361.983,98.4894 360.816,97.8228 360,96.5C 359.5,83.8377 359.333,71.1711 359.5,58.5C 354.537,59.4258 349.537,60.0925 344.5,60.5C 348.97,58.8787 353.637,57.5454 358.5,56.5C 359.167,56.8333 359.833,57.1667 360.5,57.5C 361.333,70.4872 361.833,83.4872 362,96.5C 362.717,97.0442 363.217,97.7109 363.5,98.5 Z"/></g>
<g><path style="opacity:0.271" fill="#8458e2" d="M 402.5,88.5 C 404.223,90.2528 405.723,92.2528 407,94.5C 408.98,95.7491 410.813,97.0824 412.5,98.5C 406.962,97.46 403.629,94.1266 402.5,88.5 Z"/></g>
<g><path style="opacity:0.125" fill="#7648db" d="M 258.5,96.5 C 266.735,101.571 275.068,101.738 283.5,97C 286.97,94.8771 286.97,93.7105 283.5,93.5C 285.151,92.0299 286.985,90.6966 289,89.5C 290.615,90.656 290.615,91.9893 289,93.5C 281.611,101.222 272.778,103.389 262.5,100C 260.907,99.0513 259.574,97.8846 258.5,96.5 Z"/></g>
<g><path style="opacity:0.024" fill="#885cdd" d="M 454.5,90.5 C 452.509,96.7605 447.842,100.427 440.5,101.5C 442.792,99.7102 445.459,98.2102 448.5,97C 450.734,94.9373 452.734,92.7706 454.5,90.5 Z"/></g>
<g><path style="opacity:0.884" fill="#845adf" d="M 363.5,98.5 C 363.833,98.5 364.167,98.5 364.5,98.5C 364.5,98.8333 364.5,99.1667 364.5,99.5C 359.966,100.216 355.299,100.883 350.5,101.5C 349.893,101.376 349.56,101.043 349.5,100.5C 354.167,99.8333 358.833,99.1667 363.5,98.5 Z"/></g>
<g><path style="opacity:0.082" fill="#7b5ed2" d="M 23.5,76.5 C 27.9482,78.2272 31.9482,80.7272 35.5,84C 43.2522,91.0686 49.9189,98.9019 55.5,107.5C 55.1034,108.525 54.4368,108.692 53.5,108C 45.6844,95.3527 35.6844,84.8527 23.5,76.5 Z"/></g>
<g><path style="opacity:0.367" fill="#8168d5" d="M 95.5,130.5 C 94.7494,131.573 93.7494,131.74 92.5,131C 88.0098,124.345 82.6765,118.512 76.5,113.5C 76.8966,112.475 77.5632,112.308 78.5,113C 80.8706,115.706 83.5372,118.039 86.5,120C 88.6689,124.327 91.6689,127.827 95.5,130.5 Z"/></g>
</svg>
